<svg xmlns="http://www.w3.org/2000/svg" fill="none" viewBox="0 0 392 225">
  <path fill="#000" d="M0 224.675c2.669-31.728 12.38-60.936 29.134-87.624C45.888 110.364 68.2 89.162 96.075 73.446L63.16 16.513c-1.779-2.669-2.223-5.486-1.334-8.451.89-2.965 2.817-5.19 5.782-6.672C69.981-.093 72.65-.39 75.615.5c2.965.89 5.337 2.67 7.116 5.338l32.915 56.933c25.501-10.675 52.189-16.012 80.062-16.012 27.874 0 54.561 5.337 80.063 16.012l32.914-56.933c1.78-2.669 4.152-4.448 7.117-5.338 2.965-.89 5.634-.593 8.006.89 2.966 1.483 4.893 3.707 5.783 6.672.889 2.965.444 5.782-1.335 8.45l-32.914 56.934c27.873 15.716 50.187 36.918 66.941 63.605 16.754 26.688 26.465 55.896 29.134 87.624H0Zm106.75-48.927c6.227 0 11.49-2.15 15.79-6.449 4.3-4.3 6.45-9.563 6.45-15.79 0-6.227-2.15-11.491-6.45-15.79-4.3-4.3-9.563-6.45-15.79-6.45-6.227 0-11.49 2.15-15.79 6.45-4.3 4.299-6.45 9.563-6.45 15.79 0 6.227 2.15 11.49 6.45 15.79 4.3 4.299 9.563 6.449 15.79 6.449Zm177.917 0c6.227 0 11.49-2.15 15.79-6.449 4.299-4.3 6.449-9.563 6.449-15.79 0-6.227-2.15-11.491-6.449-15.79-4.3-4.3-9.563-6.45-15.79-6.45-6.227 0-11.491 2.15-15.79 6.45-4.3 4.299-6.45 9.563-6.45 15.79 0 6.227 2.15 11.49 6.45 15.79 4.299 4.299 9.563 6.449 15.79 6.449Z"/>
</svg>