<svg xmlns="http://www.w3.org/2000/svg" fill="none" viewBox="0 0 392 285">
  <path fill="#000" d="M97.854 284.667c-26.984 0-50.039-9.341-69.165-28.022C9.563 237.964 0 215.131 0 188.147c0-23.129 6.968-43.738 20.905-61.826 13.937-18.088 32.173-29.653 54.71-34.694 7.413-27.28 22.24-49.372 44.479-66.274S167.538 0 195.708 0c34.694 0 64.124 12.084 88.291 36.25 24.167 24.167 36.251 53.598 36.251 88.292 20.46 2.372 37.437 11.194 50.929 26.465 13.492 15.271 20.238 33.137 20.238 53.597 0 22.24-7.784 41.143-23.352 56.711-15.568 15.568-34.471 23.352-56.711 23.352h-213.5Z"/>
</svg>