<svg xmlns="http://www.w3.org/2000/svg" fill="none" viewBox="0 0 366 366">
  <path fill="#000" d="M325.706 163.299c-28.144-12.121-52.759-28.725-73.888-49.832-21.107-21.108-37.732-45.744-49.832-73.887a220.692 220.692 0 0 1-11.249-33.25A8.347 8.347 0 0 0 182.643 0a8.347 8.347 0 0 0-8.095 6.33 219.917 219.917 0 0 1-11.249 33.25c-12.121 28.143-28.725 52.779-49.832 73.887-21.108 21.087-45.744 37.711-73.887 49.832a220.692 220.692 0 0 1-33.25 11.249A8.347 8.347 0 0 0 0 182.643a8.347 8.347 0 0 0 6.33 8.094 219.917 219.917 0 0 1 33.25 11.249c28.143 12.121 52.758 28.725 73.887 49.832 21.107 21.108 37.732 45.744 49.832 73.888a219.104 219.104 0 0 1 11.249 33.249 8.364 8.364 0 0 0 8.095 6.33 8.347 8.347 0 0 0 8.094-6.33 219.89 219.89 0 0 1 11.249-33.249c12.121-28.144 28.725-52.759 49.832-73.888 21.108-21.107 45.744-37.732 73.888-49.832a219.104 219.104 0 0 1 33.249-11.249 8.366 8.366 0 0 0 6.33-8.094 8.347 8.347 0 0 0-6.33-8.095 219.89 219.89 0 0 1-33.249-11.249Z"/>
</svg>