<svg xmlns="http://www.w3.org/2000/svg" width="230" height="231" fill="none">
  <path fill="#000" d="M115.5 230.61q-23.68 0-44.76-9.1a117 117 0 0 1-36.81-24.82A117 117 0 0 1 9.1 159.87 112 112 0 0 1 0 115.11c0-15.78 3.03-30.94 9.1-44.9a118 118 0 0 1 24.83-36.67A117 117 0 0 1 70.74 8.71 112 112 0 0 1 115.5-.4c15.78 0 30.94 3.04 44.9 9.1a118 118 0 0 1 36.67 24.83 118 118 0 0 1 24.83 36.67q9.1 20.94 9.1 44.9c0 15.99-3.03 30.7-9.1 44.76a117 117 0 0 1-24.83 36.82 118 118 0 0 1-36.67 24.83q-20.93 9.1-44.9 9.1m0-23.68q7.5-10.39 13-21.65a136 136 0 0 0 8.94-23.97H93.57q3.46 12.7 8.94 23.97 5.5 11.25 13 21.66m-30.03-4.62a160 160 0 0 1-9.1-19.78q-3.9-10.24-6.5-21.22H35.8a96 96 0 0 0 20.94 25.12 83 83 0 0 0 28.73 15.88m60.06 0a83 83 0 0 0 28.73-15.88 96 96 0 0 0 20.93-25.12h-34.07a170 170 0 0 1-6.5 21.22 160 160 0 0 1-9.09 19.78M26 138.21h39.27q-.87-5.78-1.3-11.4-.44-5.64-.44-11.7a154 154 0 0 1 1.74-23.1H25.99a91.84 91.84 0 0 0-2.89 23.1 92 92 0 0 0 2.89 23.1m62.37 0h54.28a152.48 152.48 0 0 0 1.73-23.1 153 153 0 0 0-1.73-23.1H88.36q-.87 5.78-1.3 11.4-.44 5.64-.43 11.7a152 152 0 0 0 1.73 23.1m77.38 0h39.27a91.82 91.82 0 0 0 2.89-23.1 92 92 0 0 0-2.89-23.1h-39.27q.87 5.78 1.3 11.4.43 5.64.43 11.7a153 153 0 0 1-1.73 23.1m-4.62-69.3h34.07a96 96 0 0 0-20.93-25.12 83 83 0 0 0-28.73-15.88q5.2 9.52 9.1 19.78 3.9 10.24 6.5 21.22m-67.56 0h43.88a136 136 0 0 0-8.95-23.96 147 147 0 0 0-13-21.66q-7.5 10.4-12.98 21.66a137 137 0 0 0-8.95 23.96m-57.76 0h34.08q2.6-10.97 6.5-21.22t9.09-19.78a83 83 0 0 0-28.73 15.88A96 96 0 0 0 35.8 68.91"/>
</svg>
